<?xml version="1.0" encoding="UTF-8" standalone="no"?>
<!DOCTYPE svg PUBLIC "-//W3C//DTD SVG 1.1//EN"
 "http://www.w3.org/Graphics/SVG/1.1/DTD/svg11.dtd">
<!-- Generated by graphviz version 2.40.1 (20161225.0304)
 -->
<!-- Title: dependencies Pages: 1 -->
<svg width="858pt" height="211pt"
 viewBox="0.00 0.00 858.00 211.00" xmlns="http://www.w3.org/2000/svg" xmlns:xlink="http://www.w3.org/1999/xlink">
<g id="graph0" class="graph" transform="scale(1 1) rotate(0) translate(4 207)">
<title>dependencies</title>
<polygon fill="#ffffff" stroke="transparent" points="-4,4 -4,-207 854,-207 854,4 -4,4"/>
<text text-anchor="start" x="404.0091" y="-42.4" font-family="sans-serif" font-weight="bold" font-size="14.00" fill="#000000">Legend</text>
<polygon fill="#ffffb3" stroke="transparent" points="191,-10 191,-30 211,-30 211,-10 191,-10"/>
<text text-anchor="start" x="214.629" y="-15.4" font-family="sans-serif" font-size="14.00" fill="#000000"> &#160;Declarations</text>
<polygon fill="#8dd3c7" stroke="transparent" points="304,-10 304,-30 324,-30 324,-10 304,-10"/>
<text text-anchor="start" x="327.7251" y="-15.4" font-family="sans-serif" font-size="14.00" fill="#000000"> &#160;Module</text>
<polygon fill="#80b1d3" stroke="transparent" points="390,-10 390,-30 410,-30 410,-10 390,-10"/>
<text text-anchor="start" x="413.7812" y="-15.4" font-family="sans-serif" font-size="14.00" fill="#000000"> &#160;Bootstrap</text>
<polygon fill="#fdb462" stroke="transparent" points="487,-10 487,-30 507,-30 507,-10 487,-10"/>
<text text-anchor="start" x="510.6732" y="-15.4" font-family="sans-serif" font-size="14.00" fill="#000000"> &#160;Providers</text>
<polygon fill="#fb8072" stroke="transparent" points="583,-10 583,-30 603,-30 603,-10 583,-10"/>
<text text-anchor="start" x="606.7258" y="-15.4" font-family="sans-serif" font-size="14.00" fill="#000000"> &#160;Exports</text>
<g id="clust1" class="cluster">
<title>cluster_PersonaModule</title>
<polygon fill="none" stroke="#000000" stroke-dasharray="1,5" points="8,-70 8,-195 842,-195 842,-70 8,-70"/>
</g>
<g id="clust2" class="cluster">
<title>cluster_PersonaModule_declarations</title>
<polygon fill="none" stroke="#000000" points="188,-78 188,-130 834,-130 834,-78 188,-78"/>
</g>
<g id="clust7" class="cluster">
<title>cluster_PersonaModule_imports</title>
<polygon fill="none" stroke="#000000" points="16,-78 16,-130 180,-130 180,-78 16,-78"/>
</g>
<!-- PersonaComponent -->
<g id="node1" class="node">
<title>PersonaComponent</title>
<polygon fill="#ffffb3" stroke="#000000" points="825.6499,-122 700.3501,-122 700.3501,-86 825.6499,-86 825.6499,-122"/>
<text text-anchor="middle" x="763" y="-99.8" font-family="Times,serif" font-size="14.00" fill="#000000">PersonaComponent</text>
</g>
<!-- PersonaModule -->
<g id="node5" class="node">
<title>PersonaModule</title>
<polygon fill="#8dd3c7" stroke="#000000" points="491.8669,-187 488.8669,-191 467.8669,-191 464.8669,-187 388.1331,-187 388.1331,-151 491.8669,-151 491.8669,-187"/>
<text text-anchor="middle" x="440" y="-164.8" font-family="Times,serif" font-size="14.00" fill="#000000">PersonaModule</text>
</g>
<!-- PersonaComponent&#45;&gt;PersonaModule -->
<g id="edge1" class="edge">
<title>PersonaComponent&#45;&gt;PersonaModule</title>
<path fill="none" stroke="#000000" d="M763,-122.2843C763,-143.3211 763,-175 763,-175 763,-175 501.8955,-175 501.8955,-175"/>
<polygon fill="#000000" stroke="#000000" points="501.8956,-171.5001 491.8955,-175 501.8955,-178.5001 501.8956,-171.5001"/>
</g>
<!-- PersonaItemComponent -->
<g id="node2" class="node">
<title>PersonaItemComponent</title>
<polygon fill="#ffffb3" stroke="#000000" points="682.8061,-122 531.1939,-122 531.1939,-86 682.8061,-86 682.8061,-122"/>
<text text-anchor="middle" x="607" y="-99.8" font-family="Times,serif" font-size="14.00" fill="#000000">PersonaItemComponent</text>
</g>
<!-- PersonaItemComponent&#45;&gt;PersonaModule -->
<g id="edge2" class="edge">
<title>PersonaItemComponent&#45;&gt;PersonaModule</title>
<path fill="none" stroke="#000000" d="M607,-122.0225C607,-139.3734 607,-163 607,-163 607,-163 501.9244,-163 501.9244,-163"/>
<polygon fill="#000000" stroke="#000000" points="501.9245,-159.5001 491.9244,-163 501.9244,-166.5001 501.9245,-159.5001"/>
</g>
<!-- PersonaListComponent -->
<g id="node3" class="node">
<title>PersonaListComponent</title>
<polygon fill="#ffffb3" stroke="#000000" points="513.9284,-122 366.0716,-122 366.0716,-86 513.9284,-86 513.9284,-122"/>
<text text-anchor="middle" x="440" y="-99.8" font-family="Times,serif" font-size="14.00" fill="#000000">PersonaListComponent</text>
</g>
<!-- PersonaListComponent&#45;&gt;PersonaModule -->
<g id="edge3" class="edge">
<title>PersonaListComponent&#45;&gt;PersonaModule</title>
<path fill="none" stroke="#000000" d="M440,-122.1061C440,-122.1061 440,-140.991 440,-140.991"/>
<polygon fill="#000000" stroke="#000000" points="436.5001,-140.9909 440,-150.991 443.5001,-140.991 436.5001,-140.9909"/>
</g>
<!-- PersonaPrintComponent -->
<g id="node4" class="node">
<title>PersonaPrintComponent</title>
<polygon fill="#ffffb3" stroke="#000000" points="348.3739,-122 195.6261,-122 195.6261,-86 348.3739,-86 348.3739,-122"/>
<text text-anchor="middle" x="272" y="-99.8" font-family="Times,serif" font-size="14.00" fill="#000000">PersonaPrintComponent</text>
</g>
<!-- PersonaPrintComponent&#45;&gt;PersonaModule -->
<g id="edge4" class="edge">
<title>PersonaPrintComponent&#45;&gt;PersonaModule</title>
<path fill="none" stroke="#000000" d="M272,-122.0225C272,-139.3734 272,-163 272,-163 272,-163 377.7647,-163 377.7647,-163"/>
<polygon fill="#000000" stroke="#000000" points="377.7647,-166.5001 387.7647,-163 377.7646,-159.5001 377.7647,-166.5001"/>
</g>
<!-- PersonaRoutingModule -->
<g id="node6" class="node">
<title>PersonaRoutingModule</title>
<polygon fill="#8dd3c7" stroke="#000000" points="172.4846,-122 169.4846,-126 148.4846,-126 145.4846,-122 23.5154,-122 23.5154,-86 172.4846,-86 172.4846,-122"/>
<text text-anchor="middle" x="98" y="-99.8" font-family="Times,serif" font-size="14.00" fill="#000000">PersonaRoutingModule</text>
</g>
<!-- PersonaRoutingModule&#45;&gt;PersonaModule -->
<g id="edge5" class="edge">
<title>PersonaRoutingModule&#45;&gt;PersonaModule</title>
<path fill="none" stroke="#000000" d="M98,-122.2843C98,-143.3211 98,-175 98,-175 98,-175 378.0576,-175 378.0576,-175"/>
<polygon fill="#000000" stroke="#000000" points="378.0576,-178.5001 388.0576,-175 378.0575,-171.5001 378.0576,-178.5001"/>
</g>
</g>
</svg>
