<?xml version="1.0" encoding="UTF-8" standalone="no"?>
<!DOCTYPE svg PUBLIC "-//W3C//DTD SVG 1.1//EN"
 "http://www.w3.org/Graphics/SVG/1.1/DTD/svg11.dtd">
<!-- Generated by graphviz version 2.40.1 (20161225.0304)
 -->
<!-- Title: dependencies Pages: 1 -->
<svg width="798pt" height="211pt"
 viewBox="0.00 0.00 798.00 211.00" xmlns="http://www.w3.org/2000/svg" xmlns:xlink="http://www.w3.org/1999/xlink">
<g id="graph0" class="graph" transform="scale(1 1) rotate(0) translate(4 207)">
<title>dependencies</title>
<polygon fill="#ffffff" stroke="transparent" points="-4,4 -4,-207 794,-207 794,4 -4,4"/>
<text text-anchor="start" x="374.0091" y="-42.4" font-family="sans-serif" font-weight="bold" font-size="14.00" fill="#000000">Legend</text>
<polygon fill="#ffffb3" stroke="transparent" points="161,-10 161,-30 181,-30 181,-10 161,-10"/>
<text text-anchor="start" x="184.629" y="-15.4" font-family="sans-serif" font-size="14.00" fill="#000000"> &#160;Declarations</text>
<polygon fill="#8dd3c7" stroke="transparent" points="274,-10 274,-30 294,-30 294,-10 274,-10"/>
<text text-anchor="start" x="297.7251" y="-15.4" font-family="sans-serif" font-size="14.00" fill="#000000"> &#160;Module</text>
<polygon fill="#80b1d3" stroke="transparent" points="360,-10 360,-30 380,-30 380,-10 360,-10"/>
<text text-anchor="start" x="383.7812" y="-15.4" font-family="sans-serif" font-size="14.00" fill="#000000"> &#160;Bootstrap</text>
<polygon fill="#fdb462" stroke="transparent" points="457,-10 457,-30 477,-30 477,-10 457,-10"/>
<text text-anchor="start" x="480.6732" y="-15.4" font-family="sans-serif" font-size="14.00" fill="#000000"> &#160;Providers</text>
<polygon fill="#fb8072" stroke="transparent" points="553,-10 553,-30 573,-30 573,-10 553,-10"/>
<text text-anchor="start" x="576.7258" y="-15.4" font-family="sans-serif" font-size="14.00" fill="#000000"> &#160;Exports</text>
<g id="clust1" class="cluster">
<title>cluster_TareaModule</title>
<polygon fill="none" stroke="#000000" stroke-dasharray="1,5" points="8,-70 8,-195 782,-195 782,-70 8,-70"/>
</g>
<g id="clust2" class="cluster">
<title>cluster_TareaModule_declarations</title>
<polygon fill="none" stroke="#000000" points="176,-78 176,-130 774,-130 774,-78 176,-78"/>
</g>
<g id="clust7" class="cluster">
<title>cluster_TareaModule_imports</title>
<polygon fill="none" stroke="#000000" points="16,-78 16,-130 168,-130 168,-78 16,-78"/>
</g>
<!-- TareaComponent -->
<g id="node1" class="node">
<title>TareaComponent</title>
<polygon fill="#ffffb3" stroke="#000000" points="765.6896,-122 652.3104,-122 652.3104,-86 765.6896,-86 765.6896,-122"/>
<text text-anchor="middle" x="709" y="-99.8" font-family="Times,serif" font-size="14.00" fill="#000000">TareaComponent</text>
</g>
<!-- TareaModule -->
<g id="node5" class="node">
<title>TareaModule</title>
<polygon fill="#8dd3c7" stroke="#000000" points="455.9077,-187 452.9077,-191 431.9077,-191 428.9077,-187 364.0923,-187 364.0923,-151 455.9077,-151 455.9077,-187"/>
<text text-anchor="middle" x="410" y="-164.8" font-family="Times,serif" font-size="14.00" fill="#000000">TareaModule</text>
</g>
<!-- TareaComponent&#45;&gt;TareaModule -->
<g id="edge1" class="edge">
<title>TareaComponent&#45;&gt;TareaModule</title>
<path fill="none" stroke="#000000" d="M709,-122.2843C709,-143.3211 709,-175 709,-175 709,-175 465.7371,-175 465.7371,-175"/>
<polygon fill="#000000" stroke="#000000" points="465.7372,-171.5001 455.7371,-175 465.7371,-178.5001 465.7372,-171.5001"/>
</g>
<!-- TareaItemComponent -->
<g id="node2" class="node">
<title>TareaItemComponent</title>
<polygon fill="#ffffb3" stroke="#000000" points="634.3459,-122 495.6541,-122 495.6541,-86 634.3459,-86 634.3459,-122"/>
<text text-anchor="middle" x="565" y="-99.8" font-family="Times,serif" font-size="14.00" fill="#000000">TareaItemComponent</text>
</g>
<!-- TareaItemComponent&#45;&gt;TareaModule -->
<g id="edge2" class="edge">
<title>TareaItemComponent&#45;&gt;TareaModule</title>
<path fill="none" stroke="#000000" d="M565,-122.0225C565,-139.3734 565,-163 565,-163 565,-163 466.0854,-163 466.0854,-163"/>
<polygon fill="#000000" stroke="#000000" points="466.0855,-159.5001 456.0854,-163 466.0854,-166.5001 466.0855,-159.5001"/>
</g>
<!-- TareaListComponent -->
<g id="node3" class="node">
<title>TareaListComponent</title>
<polygon fill="#ffffb3" stroke="#000000" points="477.4678,-122 342.5322,-122 342.5322,-86 477.4678,-86 477.4678,-122"/>
<text text-anchor="middle" x="410" y="-99.8" font-family="Times,serif" font-size="14.00" fill="#000000">TareaListComponent</text>
</g>
<!-- TareaListComponent&#45;&gt;TareaModule -->
<g id="edge3" class="edge">
<title>TareaListComponent&#45;&gt;TareaModule</title>
<path fill="none" stroke="#000000" d="M410,-122.1061C410,-122.1061 410,-140.991 410,-140.991"/>
<polygon fill="#000000" stroke="#000000" points="406.5001,-140.9909 410,-150.991 413.5001,-140.991 406.5001,-140.9909"/>
</g>
<!-- TareaPrintComponent -->
<g id="node4" class="node">
<title>TareaPrintComponent</title>
<polygon fill="#ffffb3" stroke="#000000" points="324.4144,-122 183.5856,-122 183.5856,-86 324.4144,-86 324.4144,-122"/>
<text text-anchor="middle" x="254" y="-99.8" font-family="Times,serif" font-size="14.00" fill="#000000">TareaPrintComponent</text>
</g>
<!-- TareaPrintComponent&#45;&gt;TareaModule -->
<g id="edge4" class="edge">
<title>TareaPrintComponent&#45;&gt;TareaModule</title>
<path fill="none" stroke="#000000" d="M254,-122.0225C254,-139.3734 254,-163 254,-163 254,-163 354.0386,-163 354.0386,-163"/>
<polygon fill="#000000" stroke="#000000" points="354.0386,-166.5001 364.0386,-163 354.0386,-159.5001 354.0386,-166.5001"/>
</g>
<!-- TareaRoutingModule -->
<g id="node6" class="node">
<title>TareaRoutingModule</title>
<polygon fill="#8dd3c7" stroke="#000000" points="160.0254,-122 157.0254,-126 136.0254,-126 133.0254,-122 23.9746,-122 23.9746,-86 160.0254,-86 160.0254,-122"/>
<text text-anchor="middle" x="92" y="-99.8" font-family="Times,serif" font-size="14.00" fill="#000000">TareaRoutingModule</text>
</g>
<!-- TareaRoutingModule&#45;&gt;TareaModule -->
<g id="edge5" class="edge">
<title>TareaRoutingModule&#45;&gt;TareaModule</title>
<path fill="none" stroke="#000000" d="M92,-122.2843C92,-143.3211 92,-175 92,-175 92,-175 354.0997,-175 354.0997,-175"/>
<polygon fill="#000000" stroke="#000000" points="354.0997,-178.5001 364.0997,-175 354.0997,-171.5001 354.0997,-178.5001"/>
</g>
</g>
</svg>
