<?xml version="1.0" encoding="UTF-8" standalone="no"?>
<!DOCTYPE svg PUBLIC "-//W3C//DTD SVG 1.1//EN"
 "http://www.w3.org/Graphics/SVG/1.1/DTD/svg11.dtd">
<!-- Generated by graphviz version 2.40.1 (20161225.0304)
 -->
<!-- Title: dependencies Pages: 1 -->
<svg width="504pt" height="284pt"
 viewBox="0.00 0.00 504.00 284.00" xmlns="http://www.w3.org/2000/svg" xmlns:xlink="http://www.w3.org/1999/xlink">
<g id="graph0" class="graph" transform="scale(1 1) rotate(0) translate(4 280)">
<title>dependencies</title>
<polygon fill="#ffffff" stroke="transparent" points="-4,4 -4,-280 500,-280 500,4 -4,4"/>
<text text-anchor="start" x="227.0091" y="-42.4" font-family="sans-serif" font-weight="bold" font-size="14.00" fill="#000000">Legend</text>
<polygon fill="#ffffb3" stroke="transparent" points="14,-10 14,-30 34,-30 34,-10 14,-10"/>
<text text-anchor="start" x="37.629" y="-15.4" font-family="sans-serif" font-size="14.00" fill="#000000"> &#160;Declarations</text>
<polygon fill="#8dd3c7" stroke="transparent" points="127,-10 127,-30 147,-30 147,-10 127,-10"/>
<text text-anchor="start" x="150.7251" y="-15.4" font-family="sans-serif" font-size="14.00" fill="#000000"> &#160;Module</text>
<polygon fill="#80b1d3" stroke="transparent" points="213,-10 213,-30 233,-30 233,-10 213,-10"/>
<text text-anchor="start" x="236.7812" y="-15.4" font-family="sans-serif" font-size="14.00" fill="#000000"> &#160;Bootstrap</text>
<polygon fill="#fdb462" stroke="transparent" points="310,-10 310,-30 330,-30 330,-10 310,-10"/>
<text text-anchor="start" x="333.6732" y="-15.4" font-family="sans-serif" font-size="14.00" fill="#000000"> &#160;Providers</text>
<polygon fill="#fb8072" stroke="transparent" points="406,-10 406,-30 426,-30 426,-10 406,-10"/>
<text text-anchor="start" x="429.7258" y="-15.4" font-family="sans-serif" font-size="14.00" fill="#000000"> &#160;Exports</text>
<g id="clust1" class="cluster">
<title>cluster_SharedPipesModule</title>
<polygon fill="none" stroke="#000000" stroke-dasharray="1,5" points="108,-70 108,-268 388,-268 388,-70 108,-70"/>
</g>
<g id="clust2" class="cluster">
<title>cluster_SharedPipesModule_declarations</title>
<polygon fill="none" stroke="#000000" points="117,-78 117,-130 374,-130 374,-78 117,-78"/>
</g>
<g id="clust6" class="cluster">
<title>cluster_SharedPipesModule_exports</title>
<polygon fill="none" stroke="#000000" points="116,-208 116,-260 380,-260 380,-208 116,-208"/>
</g>
<!-- EstadoEmailPipe -->
<g id="node1" class="node">
<title>EstadoEmailPipe</title>
<polygon fill="#ffffb3" stroke="#000000" points="366.43,-122 253.57,-122 253.57,-86 366.43,-86 366.43,-122"/>
<text text-anchor="middle" x="310" y="-99.8" font-family="Times,serif" font-size="14.00" fill="#000000">EstadoEmailPipe</text>
</g>
<!-- SharedPipesModule -->
<g id="node3" class="node">
<title>SharedPipesModule</title>
<polygon fill="#8dd3c7" stroke="#000000" points="309.2548,-187 306.2548,-191 285.2548,-191 282.2548,-187 180.7452,-187 180.7452,-151 309.2548,-151 309.2548,-187"/>
<text text-anchor="middle" x="245" y="-164.8" font-family="Times,serif" font-size="14.00" fill="#000000">SharedPipesModule</text>
</g>
<!-- EstadoEmailPipe&#45;&gt;SharedPipesModule -->
<g id="edge1" class="edge">
<title>EstadoEmailPipe&#45;&gt;SharedPipesModule</title>
<path fill="none" stroke="#000000" d="M281.5814,-122.1061C281.5814,-122.1061 281.5814,-140.991 281.5814,-140.991"/>
<polygon fill="#000000" stroke="#000000" points="278.0814,-140.9909 281.5814,-150.991 285.0814,-140.991 278.0814,-140.9909"/>
</g>
<!-- EstadoTareaPipe -->
<g id="node2" class="node">
<title>EstadoTareaPipe</title>
<polygon fill="#ffffb3" stroke="#000000" points="235.3473,-122 124.6527,-122 124.6527,-86 235.3473,-86 235.3473,-122"/>
<text text-anchor="middle" x="180" y="-99.8" font-family="Times,serif" font-size="14.00" fill="#000000">EstadoTareaPipe</text>
</g>
<!-- EstadoTareaPipe&#45;&gt;SharedPipesModule -->
<g id="edge2" class="edge">
<title>EstadoTareaPipe&#45;&gt;SharedPipesModule</title>
<path fill="none" stroke="#000000" d="M208.0232,-122.1061C208.0232,-122.1061 208.0232,-140.991 208.0232,-140.991"/>
<polygon fill="#000000" stroke="#000000" points="204.5232,-140.9909 208.0232,-150.991 211.5232,-140.991 204.5232,-140.9909"/>
</g>
<!-- EstadoEmailPipe  -->
<g id="node4" class="node">
<title>EstadoEmailPipe </title>
<polygon fill="#fb8072" stroke="#000000" points="371.9292,-252 256.0708,-252 256.0708,-216 371.9292,-216 371.9292,-252"/>
<text text-anchor="middle" x="314" y="-229.8" font-family="Times,serif" font-size="14.00" fill="#000000">EstadoEmailPipe </text>
</g>
<!-- SharedPipesModule&#45;&gt;EstadoEmailPipe  -->
<g id="edge3" class="edge">
<title>SharedPipesModule&#45;&gt;EstadoEmailPipe </title>
<path fill="none" stroke="#000000" stroke-dasharray="5,2" d="M282.7064,-187.1061C282.7064,-187.1061 282.7064,-205.991 282.7064,-205.991"/>
<polygon fill="#000000" stroke="#000000" points="279.2064,-205.9909 282.7064,-215.991 286.2064,-205.991 279.2064,-205.9909"/>
</g>
<!-- EstadoTareaPipe  -->
<g id="node5" class="node">
<title>EstadoTareaPipe </title>
<polygon fill="#fb8072" stroke="#000000" points="238.3477,-252 123.6523,-252 123.6523,-216 238.3477,-216 238.3477,-252"/>
<text text-anchor="middle" x="181" y="-229.8" font-family="Times,serif" font-size="14.00" fill="#000000">EstadoTareaPipe </text>
</g>
<!-- SharedPipesModule&#45;&gt;EstadoTareaPipe  -->
<g id="edge4" class="edge">
<title>SharedPipesModule&#45;&gt;EstadoTareaPipe </title>
<path fill="none" stroke="#000000" stroke-dasharray="5,2" d="M209.3982,-187.1061C209.3982,-187.1061 209.3982,-205.991 209.3982,-205.991"/>
<polygon fill="#000000" stroke="#000000" points="205.8982,-205.9909 209.3982,-215.991 212.8982,-205.991 205.8982,-205.9909"/>
</g>
</g>
</svg>
