<?xml version="1.0" encoding="UTF-8" standalone="no"?>
<!DOCTYPE svg PUBLIC "-//W3C//DTD SVG 1.1//EN"
 "http://www.w3.org/Graphics/SVG/1.1/DTD/svg11.dtd">
<!-- Generated by graphviz version 2.40.1 (20161225.0304)
 -->
<!-- Title: dependencies Pages: 1 -->
<svg width="2650pt" height="284pt"
 viewBox="0.00 0.00 2650.00 284.00" xmlns="http://www.w3.org/2000/svg" xmlns:xlink="http://www.w3.org/1999/xlink">
<g id="graph0" class="graph" transform="scale(1 1) rotate(0) translate(4 280)">
<title>dependencies</title>
<polygon fill="#ffffff" stroke="transparent" points="-4,4 -4,-280 2646,-280 2646,4 -4,4"/>
<text text-anchor="start" x="1300.0091" y="-42.4" font-family="sans-serif" font-weight="bold" font-size="14.00" fill="#000000">Legend</text>
<polygon fill="#ffffb3" stroke="transparent" points="1087,-10 1087,-30 1107,-30 1107,-10 1087,-10"/>
<text text-anchor="start" x="1110.629" y="-15.4" font-family="sans-serif" font-size="14.00" fill="#000000"> &#160;Declarations</text>
<polygon fill="#8dd3c7" stroke="transparent" points="1200,-10 1200,-30 1220,-30 1220,-10 1200,-10"/>
<text text-anchor="start" x="1223.7251" y="-15.4" font-family="sans-serif" font-size="14.00" fill="#000000"> &#160;Module</text>
<polygon fill="#80b1d3" stroke="transparent" points="1286,-10 1286,-30 1306,-30 1306,-10 1286,-10"/>
<text text-anchor="start" x="1309.7812" y="-15.4" font-family="sans-serif" font-size="14.00" fill="#000000"> &#160;Bootstrap</text>
<polygon fill="#fdb462" stroke="transparent" points="1383,-10 1383,-30 1403,-30 1403,-10 1383,-10"/>
<text text-anchor="start" x="1406.6732" y="-15.4" font-family="sans-serif" font-size="14.00" fill="#000000"> &#160;Providers</text>
<polygon fill="#fb8072" stroke="transparent" points="1479,-10 1479,-30 1499,-30 1499,-10 1479,-10"/>
<text text-anchor="start" x="1502.7258" y="-15.4" font-family="sans-serif" font-size="14.00" fill="#000000"> &#160;Exports</text>
<g id="clust1" class="cluster">
<title>cluster_AppModule</title>
<polygon fill="none" stroke="#000000" stroke-dasharray="1,5" points="8,-70 8,-268 596,-268 596,-70 8,-70"/>
</g>
<g id="clust2" class="cluster">
<title>cluster_AppModule_declarations</title>
<polygon fill="none" stroke="#000000" points="326,-78 326,-130 588,-130 588,-78 326,-78"/>
</g>
<g id="clust5" class="cluster">
<title>cluster_AppModule_imports</title>
<polygon fill="none" stroke="#000000" points="174,-78 174,-130 318,-130 318,-78 174,-78"/>
</g>
<g id="clust7" class="cluster">
<title>cluster_AppModule_bootstrap</title>
<polygon fill="none" stroke="#000000" points="258,-208 258,-260 382,-260 382,-208 258,-208"/>
</g>
<g id="clust8" class="cluster">
<title>cluster_AppModule_providers</title>
<polygon fill="none" stroke="#000000" points="16,-78 16,-130 166,-130 166,-78 16,-78"/>
</g>
<g id="clust15" class="cluster">
<title>cluster_PersonaModule</title>
<polygon fill="none" stroke="#000000" stroke-dasharray="1,5" points="604,-70 604,-195 1438,-195 1438,-70 604,-70"/>
</g>
<g id="clust16" class="cluster">
<title>cluster_PersonaModule_declarations</title>
<polygon fill="none" stroke="#000000" points="784,-78 784,-130 1430,-130 1430,-78 784,-78"/>
</g>
<g id="clust21" class="cluster">
<title>cluster_PersonaModule_imports</title>
<polygon fill="none" stroke="#000000" points="612,-78 612,-130 776,-130 776,-78 612,-78"/>
</g>
<g id="clust31" class="cluster">
<title>cluster_SharedPipesModule</title>
<polygon fill="none" stroke="#000000" stroke-dasharray="1,5" points="1446,-70 1446,-268 1726,-268 1726,-70 1446,-70"/>
</g>
<g id="clust32" class="cluster">
<title>cluster_SharedPipesModule_declarations</title>
<polygon fill="none" stroke="#000000" points="1455,-78 1455,-130 1712,-130 1712,-78 1455,-78"/>
</g>
<g id="clust36" class="cluster">
<title>cluster_SharedPipesModule_exports</title>
<polygon fill="none" stroke="#000000" points="1454,-208 1454,-260 1718,-260 1718,-208 1454,-208"/>
</g>
<g id="clust39" class="cluster">
<title>cluster_TareaModule</title>
<polygon fill="none" stroke="#000000" stroke-dasharray="1,5" points="1734,-70 1734,-195 2508,-195 2508,-70 1734,-70"/>
</g>
<g id="clust40" class="cluster">
<title>cluster_TareaModule_declarations</title>
<polygon fill="none" stroke="#000000" points="1902,-78 1902,-130 2500,-130 2500,-78 1902,-78"/>
</g>
<g id="clust45" class="cluster">
<title>cluster_TareaModule_imports</title>
<polygon fill="none" stroke="#000000" points="1742,-78 1742,-130 1894,-130 1894,-78 1742,-78"/>
</g>
<g id="clust55" class="cluster">
<title>cluster_TestingModule</title>
<polygon fill="none" stroke="#000000" stroke-dasharray="1,5" points="2516,-70 2516,-195 2634,-195 2634,-70 2516,-70"/>
</g>
<g id="clust56" class="cluster">
<title>cluster_TestingModule_declarations</title>
<polygon fill="none" stroke="#000000" points="2527,-78 2527,-130 2623,-130 2623,-78 2527,-78"/>
</g>
<!-- AppComponent -->
<g id="node1" class="node">
<title>AppComponent</title>
<polygon fill="#ffffb3" stroke="#000000" points="579.9399,-122 474.0601,-122 474.0601,-86 579.9399,-86 579.9399,-122"/>
<text text-anchor="middle" x="527" y="-99.8" font-family="Times,serif" font-size="14.00" fill="#000000">AppComponent</text>
</g>
<!-- AppModule -->
<g id="node3" class="node">
<title>AppModule</title>
<polygon fill="#8dd3c7" stroke="#000000" points="361.6571,-187 358.6571,-191 337.6571,-191 334.6571,-187 278.3429,-187 278.3429,-151 361.6571,-151 361.6571,-187"/>
<text text-anchor="middle" x="320" y="-164.8" font-family="Times,serif" font-size="14.00" fill="#000000">AppModule</text>
</g>
<!-- AppComponent&#45;&gt;AppModule -->
<g id="edge1" class="edge">
<title>AppComponent&#45;&gt;AppModule</title>
<path fill="none" stroke="#000000" d="M527,-122.027C527,-138.3976 527,-160 527,-160 527,-160 371.8895,-160 371.8895,-160"/>
<polygon fill="#000000" stroke="#000000" points="371.8896,-156.5001 361.8895,-160 371.8895,-163.5001 371.8896,-156.5001"/>
</g>
<!-- NavbarComponent -->
<g id="node2" class="node">
<title>NavbarComponent</title>
<polygon fill="#ffffb3" stroke="#000000" points="456.0297,-122 333.9703,-122 333.9703,-86 456.0297,-86 456.0297,-122"/>
<text text-anchor="middle" x="395" y="-99.8" font-family="Times,serif" font-size="14.00" fill="#000000">NavbarComponent</text>
</g>
<!-- NavbarComponent&#45;&gt;AppModule -->
<g id="edge2" class="edge">
<title>NavbarComponent&#45;&gt;AppModule</title>
<path fill="none" stroke="#000000" d="M347.7819,-122.1061C347.7819,-122.1061 347.7819,-140.991 347.7819,-140.991"/>
<polygon fill="#000000" stroke="#000000" points="344.282,-140.9909 347.7819,-150.991 351.282,-140.991 344.282,-140.9909"/>
</g>
<!-- AppComponent  -->
<g id="node5" class="node">
<title>AppComponent </title>
<polygon fill="#80b1d3" stroke="#000000" points="374.439,-252 265.561,-252 265.561,-216 374.439,-216 374.439,-252"/>
<text text-anchor="middle" x="320" y="-229.8" font-family="Times,serif" font-size="14.00" fill="#000000">AppComponent </text>
</g>
<!-- AppModule&#45;&gt;AppComponent  -->
<g id="edge4" class="edge">
<title>AppModule&#45;&gt;AppComponent </title>
<path fill="none" stroke="#000000" stroke-dasharray="1,5" d="M320,-187.1061C320,-187.1061 320,-205.991 320,-205.991"/>
<polygon fill="#000000" stroke="#000000" points="316.5001,-205.9909 320,-215.991 323.5001,-205.991 316.5001,-205.9909"/>
</g>
<!-- AppRoutingModule -->
<g id="node4" class="node">
<title>AppRoutingModule</title>
<polygon fill="#8dd3c7" stroke="#000000" points="310.2744,-122 307.2744,-126 286.2744,-126 283.2744,-122 181.7256,-122 181.7256,-86 310.2744,-86 310.2744,-122"/>
<text text-anchor="middle" x="246" y="-99.8" font-family="Times,serif" font-size="14.00" fill="#000000">AppRoutingModule</text>
</g>
<!-- AppRoutingModule&#45;&gt;AppModule -->
<g id="edge3" class="edge">
<title>AppRoutingModule&#45;&gt;AppModule</title>
<path fill="none" stroke="#000000" d="M294.2795,-122.1061C294.2795,-122.1061 294.2795,-140.991 294.2795,-140.991"/>
<polygon fill="#000000" stroke="#000000" points="290.7795,-140.9909 294.2795,-150.991 297.7795,-140.991 290.7795,-140.9909"/>
</g>
<!-- JwtInterceptor -->
<g id="node6" class="node">
<title>JwtInterceptor</title>
<ellipse fill="#fdb462" stroke="#000000" cx="91" cy="-104" rx="66.6094" ry="18"/>
<text text-anchor="middle" x="91" y="-99.8" font-family="Times,serif" font-size="14.00" fill="#000000">JwtInterceptor</text>
</g>
<!-- JwtInterceptor&#45;&gt;AppModule -->
<g id="edge5" class="edge">
<title>JwtInterceptor&#45;&gt;AppModule</title>
<path fill="none" stroke="#000000" d="M91,-122.1061C91,-141.3391 91,-169 91,-169 91,-169 268.2641,-169 268.2641,-169"/>
<polygon fill="#000000" stroke="#000000" points="268.2642,-172.5001 278.2641,-169 268.2641,-165.5001 268.2642,-172.5001"/>
</g>
<!-- PersonaComponent -->
<g id="node7" class="node">
<title>PersonaComponent</title>
<polygon fill="#ffffb3" stroke="#000000" points="1421.6499,-122 1296.3501,-122 1296.3501,-86 1421.6499,-86 1421.6499,-122"/>
<text text-anchor="middle" x="1359" y="-99.8" font-family="Times,serif" font-size="14.00" fill="#000000">PersonaComponent</text>
</g>
<!-- PersonaModule -->
<g id="node11" class="node">
<title>PersonaModule</title>
<polygon fill="#8dd3c7" stroke="#000000" points="1087.8669,-187 1084.8669,-191 1063.8669,-191 1060.8669,-187 984.1331,-187 984.1331,-151 1087.8669,-151 1087.8669,-187"/>
<text text-anchor="middle" x="1036" y="-164.8" font-family="Times,serif" font-size="14.00" fill="#000000">PersonaModule</text>
</g>
<!-- PersonaComponent&#45;&gt;PersonaModule -->
<g id="edge6" class="edge">
<title>PersonaComponent&#45;&gt;PersonaModule</title>
<path fill="none" stroke="#000000" d="M1359,-122.2843C1359,-143.3211 1359,-175 1359,-175 1359,-175 1097.8955,-175 1097.8955,-175"/>
<polygon fill="#000000" stroke="#000000" points="1097.8956,-171.5001 1087.8955,-175 1097.8955,-178.5001 1097.8956,-171.5001"/>
</g>
<!-- PersonaItemComponent -->
<g id="node8" class="node">
<title>PersonaItemComponent</title>
<polygon fill="#ffffb3" stroke="#000000" points="1278.8061,-122 1127.1939,-122 1127.1939,-86 1278.8061,-86 1278.8061,-122"/>
<text text-anchor="middle" x="1203" y="-99.8" font-family="Times,serif" font-size="14.00" fill="#000000">PersonaItemComponent</text>
</g>
<!-- PersonaItemComponent&#45;&gt;PersonaModule -->
<g id="edge7" class="edge">
<title>PersonaItemComponent&#45;&gt;PersonaModule</title>
<path fill="none" stroke="#000000" d="M1203,-122.0225C1203,-139.3734 1203,-163 1203,-163 1203,-163 1097.9244,-163 1097.9244,-163"/>
<polygon fill="#000000" stroke="#000000" points="1097.9245,-159.5001 1087.9244,-163 1097.9244,-166.5001 1097.9245,-159.5001"/>
</g>
<!-- PersonaListComponent -->
<g id="node9" class="node">
<title>PersonaListComponent</title>
<polygon fill="#ffffb3" stroke="#000000" points="1109.9284,-122 962.0716,-122 962.0716,-86 1109.9284,-86 1109.9284,-122"/>
<text text-anchor="middle" x="1036" y="-99.8" font-family="Times,serif" font-size="14.00" fill="#000000">PersonaListComponent</text>
</g>
<!-- PersonaListComponent&#45;&gt;PersonaModule -->
<g id="edge8" class="edge">
<title>PersonaListComponent&#45;&gt;PersonaModule</title>
<path fill="none" stroke="#000000" d="M1036,-122.1061C1036,-122.1061 1036,-140.991 1036,-140.991"/>
<polygon fill="#000000" stroke="#000000" points="1032.5001,-140.9909 1036,-150.991 1039.5001,-140.991 1032.5001,-140.9909"/>
</g>
<!-- PersonaPrintComponent -->
<g id="node10" class="node">
<title>PersonaPrintComponent</title>
<polygon fill="#ffffb3" stroke="#000000" points="944.3739,-122 791.6261,-122 791.6261,-86 944.3739,-86 944.3739,-122"/>
<text text-anchor="middle" x="868" y="-99.8" font-family="Times,serif" font-size="14.00" fill="#000000">PersonaPrintComponent</text>
</g>
<!-- PersonaPrintComponent&#45;&gt;PersonaModule -->
<g id="edge9" class="edge">
<title>PersonaPrintComponent&#45;&gt;PersonaModule</title>
<path fill="none" stroke="#000000" d="M868,-122.1061C868,-141.3391 868,-169 868,-169 868,-169 973.7647,-169 973.7647,-169"/>
<polygon fill="#000000" stroke="#000000" points="973.7647,-172.5001 983.7647,-169 973.7646,-165.5001 973.7647,-172.5001"/>
</g>
<!-- PersonaRoutingModule -->
<g id="node12" class="node">
<title>PersonaRoutingModule</title>
<polygon fill="#8dd3c7" stroke="#000000" points="768.4846,-122 765.4846,-126 744.4846,-126 741.4846,-122 619.5154,-122 619.5154,-86 768.4846,-86 768.4846,-122"/>
<text text-anchor="middle" x="694" y="-99.8" font-family="Times,serif" font-size="14.00" fill="#000000">PersonaRoutingModule</text>
</g>
<!-- PersonaRoutingModule&#45;&gt;PersonaModule -->
<g id="edge10" class="edge">
<title>PersonaRoutingModule&#45;&gt;PersonaModule</title>
<path fill="none" stroke="#000000" d="M694,-122.2921C694,-144.2057 694,-178 694,-178 694,-178 974.0576,-178 974.0576,-178"/>
<polygon fill="#000000" stroke="#000000" points="974.0576,-181.5001 984.0576,-178 974.0575,-174.5001 974.0576,-181.5001"/>
</g>
<!-- EstadoEmailPipe -->
<g id="node13" class="node">
<title>EstadoEmailPipe</title>
<polygon fill="#ffffb3" stroke="#000000" points="1704.43,-122 1591.57,-122 1591.57,-86 1704.43,-86 1704.43,-122"/>
<text text-anchor="middle" x="1648" y="-99.8" font-family="Times,serif" font-size="14.00" fill="#000000">EstadoEmailPipe</text>
</g>
<!-- SharedPipesModule -->
<g id="node15" class="node">
<title>SharedPipesModule</title>
<polygon fill="#8dd3c7" stroke="#000000" points="1647.2548,-187 1644.2548,-191 1623.2548,-191 1620.2548,-187 1518.7452,-187 1518.7452,-151 1647.2548,-151 1647.2548,-187"/>
<text text-anchor="middle" x="1583" y="-164.8" font-family="Times,serif" font-size="14.00" fill="#000000">SharedPipesModule</text>
</g>
<!-- EstadoEmailPipe&#45;&gt;SharedPipesModule -->
<g id="edge11" class="edge">
<title>EstadoEmailPipe&#45;&gt;SharedPipesModule</title>
<path fill="none" stroke="#000000" d="M1619.5814,-122.1061C1619.5814,-122.1061 1619.5814,-140.991 1619.5814,-140.991"/>
<polygon fill="#000000" stroke="#000000" points="1616.0814,-140.9909 1619.5814,-150.991 1623.0814,-140.991 1616.0814,-140.9909"/>
</g>
<!-- EstadoTareaPipe -->
<g id="node14" class="node">
<title>EstadoTareaPipe</title>
<polygon fill="#ffffb3" stroke="#000000" points="1573.3473,-122 1462.6527,-122 1462.6527,-86 1573.3473,-86 1573.3473,-122"/>
<text text-anchor="middle" x="1518" y="-99.8" font-family="Times,serif" font-size="14.00" fill="#000000">EstadoTareaPipe</text>
</g>
<!-- EstadoTareaPipe&#45;&gt;SharedPipesModule -->
<g id="edge12" class="edge">
<title>EstadoTareaPipe&#45;&gt;SharedPipesModule</title>
<path fill="none" stroke="#000000" d="M1546.0232,-122.1061C1546.0232,-122.1061 1546.0232,-140.991 1546.0232,-140.991"/>
<polygon fill="#000000" stroke="#000000" points="1542.5232,-140.9909 1546.0232,-150.991 1549.5232,-140.991 1542.5232,-140.9909"/>
</g>
<!-- EstadoEmailPipe  -->
<g id="node16" class="node">
<title>EstadoEmailPipe </title>
<polygon fill="#fb8072" stroke="#000000" points="1709.9292,-252 1594.0708,-252 1594.0708,-216 1709.9292,-216 1709.9292,-252"/>
<text text-anchor="middle" x="1652" y="-229.8" font-family="Times,serif" font-size="14.00" fill="#000000">EstadoEmailPipe </text>
</g>
<!-- SharedPipesModule&#45;&gt;EstadoEmailPipe  -->
<g id="edge13" class="edge">
<title>SharedPipesModule&#45;&gt;EstadoEmailPipe </title>
<path fill="none" stroke="#000000" stroke-dasharray="5,2" d="M1620.7064,-187.1061C1620.7064,-187.1061 1620.7064,-205.991 1620.7064,-205.991"/>
<polygon fill="#000000" stroke="#000000" points="1617.2064,-205.9909 1620.7064,-215.991 1624.2064,-205.991 1617.2064,-205.9909"/>
</g>
<!-- EstadoTareaPipe  -->
<g id="node17" class="node">
<title>EstadoTareaPipe </title>
<polygon fill="#fb8072" stroke="#000000" points="1576.3477,-252 1461.6523,-252 1461.6523,-216 1576.3477,-216 1576.3477,-252"/>
<text text-anchor="middle" x="1519" y="-229.8" font-family="Times,serif" font-size="14.00" fill="#000000">EstadoTareaPipe </text>
</g>
<!-- SharedPipesModule&#45;&gt;EstadoTareaPipe  -->
<g id="edge14" class="edge">
<title>SharedPipesModule&#45;&gt;EstadoTareaPipe </title>
<path fill="none" stroke="#000000" stroke-dasharray="5,2" d="M1547.3982,-187.1061C1547.3982,-187.1061 1547.3982,-205.991 1547.3982,-205.991"/>
<polygon fill="#000000" stroke="#000000" points="1543.8982,-205.9909 1547.3982,-215.991 1550.8982,-205.991 1543.8982,-205.9909"/>
</g>
<!-- TareaComponent -->
<g id="node18" class="node">
<title>TareaComponent</title>
<polygon fill="#ffffb3" stroke="#000000" points="2491.6896,-122 2378.3104,-122 2378.3104,-86 2491.6896,-86 2491.6896,-122"/>
<text text-anchor="middle" x="2435" y="-99.8" font-family="Times,serif" font-size="14.00" fill="#000000">TareaComponent</text>
</g>
<!-- TareaModule -->
<g id="node22" class="node">
<title>TareaModule</title>
<polygon fill="#8dd3c7" stroke="#000000" points="2181.9077,-187 2178.9077,-191 2157.9077,-191 2154.9077,-187 2090.0923,-187 2090.0923,-151 2181.9077,-151 2181.9077,-187"/>
<text text-anchor="middle" x="2136" y="-164.8" font-family="Times,serif" font-size="14.00" fill="#000000">TareaModule</text>
</g>
<!-- TareaComponent&#45;&gt;TareaModule -->
<g id="edge15" class="edge">
<title>TareaComponent&#45;&gt;TareaModule</title>
<path fill="none" stroke="#000000" d="M2435,-122.2843C2435,-143.3211 2435,-175 2435,-175 2435,-175 2191.7371,-175 2191.7371,-175"/>
<polygon fill="#000000" stroke="#000000" points="2191.7372,-171.5001 2181.7371,-175 2191.7371,-178.5001 2191.7372,-171.5001"/>
</g>
<!-- TareaItemComponent -->
<g id="node19" class="node">
<title>TareaItemComponent</title>
<polygon fill="#ffffb3" stroke="#000000" points="2360.3459,-122 2221.6541,-122 2221.6541,-86 2360.3459,-86 2360.3459,-122"/>
<text text-anchor="middle" x="2291" y="-99.8" font-family="Times,serif" font-size="14.00" fill="#000000">TareaItemComponent</text>
</g>
<!-- TareaItemComponent&#45;&gt;TareaModule -->
<g id="edge16" class="edge">
<title>TareaItemComponent&#45;&gt;TareaModule</title>
<path fill="none" stroke="#000000" d="M2291,-122.0225C2291,-139.3734 2291,-163 2291,-163 2291,-163 2192.0854,-163 2192.0854,-163"/>
<polygon fill="#000000" stroke="#000000" points="2192.0855,-159.5001 2182.0854,-163 2192.0854,-166.5001 2192.0855,-159.5001"/>
</g>
<!-- TareaListComponent -->
<g id="node20" class="node">
<title>TareaListComponent</title>
<polygon fill="#ffffb3" stroke="#000000" points="2203.4678,-122 2068.5322,-122 2068.5322,-86 2203.4678,-86 2203.4678,-122"/>
<text text-anchor="middle" x="2136" y="-99.8" font-family="Times,serif" font-size="14.00" fill="#000000">TareaListComponent</text>
</g>
<!-- TareaListComponent&#45;&gt;TareaModule -->
<g id="edge17" class="edge">
<title>TareaListComponent&#45;&gt;TareaModule</title>
<path fill="none" stroke="#000000" d="M2136,-122.1061C2136,-122.1061 2136,-140.991 2136,-140.991"/>
<polygon fill="#000000" stroke="#000000" points="2132.5001,-140.9909 2136,-150.991 2139.5001,-140.991 2132.5001,-140.9909"/>
</g>
<!-- TareaPrintComponent -->
<g id="node21" class="node">
<title>TareaPrintComponent</title>
<polygon fill="#ffffb3" stroke="#000000" points="2050.4144,-122 1909.5856,-122 1909.5856,-86 2050.4144,-86 2050.4144,-122"/>
<text text-anchor="middle" x="1980" y="-99.8" font-family="Times,serif" font-size="14.00" fill="#000000">TareaPrintComponent</text>
</g>
<!-- TareaPrintComponent&#45;&gt;TareaModule -->
<g id="edge18" class="edge">
<title>TareaPrintComponent&#45;&gt;TareaModule</title>
<path fill="none" stroke="#000000" d="M1980,-122.0225C1980,-139.3734 1980,-163 1980,-163 1980,-163 2080.0386,-163 2080.0386,-163"/>
<polygon fill="#000000" stroke="#000000" points="2080.0386,-166.5001 2090.0386,-163 2080.0386,-159.5001 2080.0386,-166.5001"/>
</g>
<!-- TareaRoutingModule -->
<g id="node23" class="node">
<title>TareaRoutingModule</title>
<polygon fill="#8dd3c7" stroke="#000000" points="1886.0254,-122 1883.0254,-126 1862.0254,-126 1859.0254,-122 1749.9746,-122 1749.9746,-86 1886.0254,-86 1886.0254,-122"/>
<text text-anchor="middle" x="1818" y="-99.8" font-family="Times,serif" font-size="14.00" fill="#000000">TareaRoutingModule</text>
</g>
<!-- TareaRoutingModule&#45;&gt;TareaModule -->
<g id="edge19" class="edge">
<title>TareaRoutingModule&#45;&gt;TareaModule</title>
<path fill="none" stroke="#000000" d="M1818,-122.2843C1818,-143.3211 1818,-175 1818,-175 1818,-175 2080.0997,-175 2080.0997,-175"/>
<polygon fill="#000000" stroke="#000000" points="2080.0997,-178.5001 2090.0997,-175 2080.0997,-171.5001 2080.0997,-178.5001"/>
</g>
<!-- Helloworld -->
<g id="node24" class="node">
<title>Helloworld</title>
<polygon fill="#ffffb3" stroke="#000000" points="2614.7606,-122 2535.2394,-122 2535.2394,-86 2614.7606,-86 2614.7606,-122"/>
<text text-anchor="middle" x="2575" y="-99.8" font-family="Times,serif" font-size="14.00" fill="#000000">Helloworld</text>
</g>
<!-- TestingModule -->
<g id="node25" class="node">
<title>TestingModule</title>
<polygon fill="#8dd3c7" stroke="#000000" points="2625.5438,-187 2622.5438,-191 2601.5438,-191 2598.5438,-187 2524.4562,-187 2524.4562,-151 2625.5438,-151 2625.5438,-187"/>
<text text-anchor="middle" x="2575" y="-164.8" font-family="Times,serif" font-size="14.00" fill="#000000">TestingModule</text>
</g>
<!-- Helloworld&#45;&gt;TestingModule -->
<g id="edge20" class="edge">
<title>Helloworld&#45;&gt;TestingModule</title>
<path fill="none" stroke="#000000" d="M2575,-122.1061C2575,-122.1061 2575,-140.991 2575,-140.991"/>
<polygon fill="#000000" stroke="#000000" points="2571.5001,-140.9909 2575,-150.991 2578.5001,-140.991 2571.5001,-140.9909"/>
</g>
</g>
</svg>
